Coordinates
version=1
nRows=6
nColumns=36
inDegrees=yes

Units are S.I. units (second, meters, Newtons, ...)
If the header above contains a line with 'inDegrees', this indicates whether rotational values are in degrees (yes) or radians (no).

endheader
time	pelvis_tilt	pelvis_list	pelvis_rotation	pelvis_tx	pelvis_ty	pelvis_tz	hip_flexion_r	hip_adduction_r	hip_rotation_r	knee_angle_r	knee_angle_r_beta	ankle_angle_r	subtalar_angle_r	mtp_angle_r	hip_flexion_l	hip_adduction_l	hip_rotation_l	knee_angle_l	knee_angle_l_beta	ankle_angle_l	subtalar_angle_l	mtp_angle_l	lumbar_extension	lumbar_bending	lumbar_rotation	arm_flex_r	arm_add_r	arm_rot_r	elbow_flex_r	pro_sup_r	arm_flex_l	arm_add_l	arm_rot_l	elbow_flex_l	pro_sup_l
      0.00000000	     17.41655706	      0.86239805	      1.92441312	      0.20373625	      0.64794978	      0.01002887	     64.37548627	      1.87974765	      4.08988358	     93.94694960	      1.63968359	     -4.11764962	    -18.96947944	     -6.86108950	     60.82010969	    -10.35535609	     -2.73577636	     96.09714008	      1.67721150	      9.94299773	     -7.10048694	     -6.86108950	    -39.36454205	     -1.71664910	      3.24767902	     16.90458195	     -9.12148181	     21.46503068	     24.28814875	     72.52340369	     21.52079227	     -9.43283122	     28.96194385	     21.95091265	     65.63961858
      0.01666670	     16.84255720	     -0.57088245	      3.54724012	      0.20252606	      0.64708364	      0.00770852	     64.95064066	      2.17631908	      3.25306131	     95.12055151	      1.66016681	      3.68588160	    -15.39654574	     -6.94487862	     63.66122411	     -6.93180449	      1.07901574	     98.15985619	      1.71321268	     17.49484678	     -5.49127973	     -6.94487862	    -38.76839776	      0.85057125	      2.53743978	     19.00783441	     -9.34131262	     28.25254261	     19.23092400	     75.42787686	     21.89915512	     -9.01304830	     29.17927288	     20.55306203	     65.68852263
      0.03333330	     16.92554864	     -0.50886720	      3.55945852	      0.20183968	      0.64741731	      0.00725444	     64.98906995	      1.70468146	      3.36038200	     95.85572282	      1.67299797	      8.46248302	    -12.72809830	     -6.99818574	     63.86877863	     -5.26912747	      1.99290555	     98.01762777	      1.71073033	     17.45713989	     -6.82645262	     -6.99818574	    -38.83142422	      1.16688890	      2.47698003	     19.87617369	     -9.54544175	     34.18430295	     17.41710695	     77.14079723	     22.30712766	     -8.57834204	     30.94531646	     19.22280493	     66.03768938
      0.05000000	     17.46333069	     -0.45048345	      3.33739928	      0.20331957	      0.64747024	      0.00516977	     64.20625134	      1.68439625	      3.37322895	     95.55494856	      1.66774847	     11.04314214	    -10.57235716	     -7.28955320	     63.28311296	     -4.77008216	      2.49195429	     98.45910107	      1.71843549	     17.27084150	     -7.56384290	     -7.28955320	    -39.11185452	      1.62144956	      1.49974896	     22.01790845	     -9.03588481	     47.56880074	     13.42628966	     70.83728338	     22.00118298	     -8.69582037	     32.91179612	     18.46667202	     64.46641969
      0.06666670	     17.77141627	     -0.28501936	      3.18761113	      0.19936816	      0.64824053	      0.00840686	     63.58651613	      1.80858660	      3.41196456	     95.16524608	      1.66094688	     12.50084296	     -9.55077180	     -7.29323820	     62.81858382	     -4.45368960	      2.74191202	     98.32147060	      1.71603339	     16.62115930	     -8.53936336	     -7.29323820	    -39.88498556	      1.53151880	      1.26333087	     22.59757544	     -8.62666718	     48.11044251	     12.77191267	     71.10930932	     22.28581513	     -8.56174852	     33.31430961	     17.89930315	     64.63839275
      0.08333330	     17.89739446	     -0.06430428	      3.06626774	      0.20544519	      0.64800055	      0.00796176	     63.33694168	      1.75610487	      3.72915954	     95.44429614	      1.66581722	     13.34340517	     -8.67265151	     -7.32237181	     62.56933077	     -4.31212427	      2.80265592	     98.38188346	      1.71708779	     16.50421093	     -8.76658161	     -7.32237181	    -39.71647016	      1.29106791	      0.85287498	     23.45682451	     -7.94582967	     53.66617637	     10.23285394	     72.77616006	     22.75377936	     -8.45420717	     37.32922062	     15.57812766	     65.81247144
